<svg width="24" height="24" viewBox="0 0 24 24" fill="none" xmlns="http://www.w3.org/2000/svg">
<path d="M7.23673 17C6.4906 17 5.79513 16.8803 5.15033 16.6409C4.51473 16.3923 3.96205 16.0424 3.49226 15.5912C3.02247 15.1399 2.65401 14.6105 2.38688 14.0028C2.12896 13.395 2 12.7275 2 12C2 11.2725 2.12896 10.605 2.38688 9.99724C2.65401 9.3895 3.02247 8.86004 3.49226 8.40884C3.97126 7.95764 4.52855 7.61234 5.16414 7.37293C5.79974 7.12431 6.4952 7 7.25054 7C8.08879 7 8.84413 7.14733 9.51657 7.44199C10.1982 7.72744 10.7694 8.15101 11.2299 8.71271L9.79291 10.0387C9.4613 9.66118 9.09284 9.38029 8.68753 9.19613C8.28223 9.00276 7.84008 8.90608 7.36108 8.90608C6.90972 8.90608 6.4952 8.97974 6.11753 9.12707C5.73986 9.27441 5.41285 9.48619 5.13651 9.76243C4.86016 10.0387 4.64369 10.3656 4.4871 10.7431C4.33971 11.1206 4.26602 11.5396 4.26602 12C4.26602 12.4604 4.33971 12.8794 4.4871 13.2569C4.64369 13.6344 4.86016 13.9613 5.13651 14.2376C5.41285 14.5138 5.73986 14.7256 6.11753 14.8729C6.4952 15.0203 6.90972 15.0939 7.36108 15.0939C7.84008 15.0939 8.28223 15.0018 8.68753 14.8177C9.09284 14.6243 9.4613 14.3343 9.79291 13.9475L11.2299 15.2735C10.7694 15.8352 10.1982 16.2634 9.51657 16.558C8.84413 16.8526 8.08418 17 7.23673 17ZM15.6026 16.8343L11.4298 7.16575H13.8478L17.4956 15.7293H16.0724L19.7754 7.16575H22L17.8134 16.8343H15.6026Z" fill="#1A8164"/>
</svg>
