<svg width="24" height="24" viewBox="0 0 24 24" fill="none" xmlns="http://www.w3.org/2000/svg">
<path fill-rule="evenodd" clip-rule="evenodd" d="M7.87722 2.06C8.94389 2.01111 9.28389 2 12 2C14.7166 2 15.0561 2.01166 16.1222 2.06C17.1872 2.10834 17.9145 2.27778 18.5505 2.525C19.2177 2.77619 19.8221 3.16976 20.3216 3.67834C20.8303 4.17782 21.2239 4.78224 21.475 5.44945C21.7222 6.08555 21.8911 6.81278 21.94 7.87722C21.9889 8.94389 22 9.28389 22 12C22 14.7161 21.9884 15.0561 21.94 16.1228C21.8916 17.1872 21.7222 17.9145 21.475 18.5505C21.2195 19.2078 20.8772 19.7661 20.3216 20.3216C19.8222 20.8303 19.2177 21.2239 18.5505 21.475C17.9145 21.7222 17.1872 21.8911 16.1228 21.94C15.0561 21.9889 14.7161 22 12 22C9.28389 22 8.94389 21.9884 7.87722 21.94C6.81278 21.8916 6.08555 21.7222 5.44945 21.475C4.79222 21.2195 4.23389 20.8772 3.67834 20.3216C3.16967 19.8222 2.77607 19.2177 2.525 18.5505C2.27778 17.9145 2.10889 17.1872 2.06 16.1228C2.01111 15.0561 2 14.7166 2 12C2 9.28334 2.01166 8.94389 2.06 7.87778C2.10834 6.81278 2.27778 6.08555 2.525 5.44945C2.77619 4.78228 3.16976 4.17789 3.67834 3.67834C4.17781 3.16967 4.78223 2.77607 5.44945 2.525C6.08555 2.27778 6.81278 2.10889 7.87722 2.06ZM16.0411 3.86C14.9866 3.81222 14.67 3.80166 12 3.80166C9.33 3.80166 9.01334 3.81222 7.95889 3.86C6.98389 3.90445 6.45445 4.06722 6.10222 4.20445C5.63555 4.38555 5.30222 4.60222 4.95222 4.95222C4.60278 5.30222 4.38555 5.63555 4.20445 6.10222C4.06722 6.45445 3.90445 6.98389 3.86 7.95889C3.81222 9.01334 3.80166 9.33 3.80166 12C3.80166 14.67 3.81222 14.9866 3.86 16.0411C3.90445 17.0161 4.06722 17.5455 4.20445 17.8978C4.36465 18.3322 4.62017 18.7251 4.95222 19.0478C5.27485 19.3798 5.66783 19.6354 6.10222 19.7955C6.45445 19.9328 6.98389 20.0955 7.95889 20.14C9.01334 20.1878 9.32945 20.1984 12 20.1984C14.6705 20.1984 14.9866 20.1878 16.0411 20.14C17.0161 20.0955 17.5455 19.9328 17.8978 19.7955C18.3645 19.6145 18.6978 19.3978 19.0478 19.0478C19.3798 18.7252 19.6354 18.3322 19.7955 17.8978C19.9328 17.5455 20.0955 17.0161 20.14 16.0411C20.1878 14.9866 20.1984 14.67 20.1984 12C20.1984 9.33 20.1878 9.01334 20.14 7.95889C20.0955 6.98389 19.9328 6.45445 19.7955 6.10222C19.6145 5.63555 19.3978 5.30222 19.0478 4.95222C18.6978 4.60278 18.3645 4.38555 17.8978 4.20445C17.5455 4.06722 17.0161 3.90445 16.0411 3.86ZM10.7232 15.0826C11.128 15.2504 11.5618 15.3366 12 15.3366C12.885 15.3366 13.7336 14.9851 14.3594 14.3594C14.9852 13.7336 15.3367 12.8849 15.3367 12C15.3367 11.1151 14.9852 10.2664 14.3594 9.64062C13.7336 9.01487 12.885 8.66333 12 8.66333C11.5618 8.66333 11.128 8.74964 10.7232 8.91732C10.3183 9.085 9.95048 9.33077 9.64065 9.64062C9.33081 9.95046 9.08503 10.3183 8.91735 10.7231C8.74966 11.1279 8.66336 11.5618 8.66336 12C8.66336 12.4382 8.74966 12.8721 8.91735 13.2769C9.08503 13.6817 9.33081 14.0495 9.64065 14.3594C9.95048 14.6692 10.3183 14.915 10.7232 15.0826ZM8.3655 8.36546C9.32944 7.40153 10.6368 6.85999 12 6.85999C13.3633 6.85999 14.6706 7.40153 15.6345 8.36546C16.5985 9.3294 17.14 10.6368 17.14 12C17.14 13.3632 16.5985 14.6705 15.6345 15.6345C14.6706 16.5985 13.3633 17.14 12 17.14C10.6368 17.14 9.32944 16.5985 8.3655 15.6345C7.40156 14.6705 6.86003 13.3632 6.86003 12C6.86003 10.6368 7.40156 9.3294 8.3655 8.36546ZM18.2797 7.6258C18.5075 7.39794 18.6355 7.0889 18.6355 6.76666C18.6355 6.44442 18.5075 6.13538 18.2797 5.90753C18.0518 5.67967 17.7428 5.55166 17.4205 5.55166C17.0984 5.55166 16.7893 5.67967 16.5615 5.90753C16.3335 6.13538 16.2055 6.44442 16.2055 6.76666C16.2055 7.0889 16.3335 7.39794 16.5615 7.6258C16.7893 7.85365 17.0984 7.98166 17.4205 7.98166C17.7428 7.98166 18.0518 7.85365 18.2797 7.6258Z" fill="#1A8164"/>
</svg>
