<svg width="24" height="24" viewBox="0 0 24 24" fill="none" xmlns="http://www.w3.org/2000/svg">
<path d="M19.3604 3.35986H4.63595C3.93179 3.35986 3.36035 3.91786 3.36035 4.60498V19.3931C3.36035 20.0811 3.93179 20.6399 4.63595 20.6399H19.3604C20.065 20.6399 20.6403 20.0811 20.6403 19.3931V4.60498C20.6403 3.91786 20.065 3.35986 19.3604 3.35986ZM8.48531 18.0848H5.92115V9.83866H8.48531V18.0848ZM7.20323 8.71114C6.38171 8.71114 5.71763 8.04538 5.71763 7.22458C5.71763 6.40498 6.38171 5.73922 7.20323 5.73922C8.02283 5.73922 8.68859 6.40498 8.68859 7.22458C8.68859 8.04538 8.02283 8.71114 7.20323 8.71114ZM18.0843 18.0848H15.5242V14.0749C15.5242 13.1183 15.5055 11.8883 14.192 11.8883C12.8581 11.8883 12.6548 12.9301 12.6548 14.0055V18.0851H10.0928V9.83866H12.5516V10.9647H12.5866C12.9289 10.3167 13.765 9.63298 15.0121 9.63298C17.6055 9.63298 18.0845 11.3403 18.0845 13.5615L18.0843 18.0848Z" fill="#1A8164"/>
</svg>
