<svg width="24" height="24" viewBox="0 0 24 24" fill="none" xmlns="http://www.w3.org/2000/svg">
<path d="M20.659 9.70781C20.7961 9.59883 21 9.70078 21 9.87307V17.0625C21 17.9941 20.2441 18.75 19.3125 18.75H4.6875C3.75587 18.75 3 17.9941 3 17.0625V9.87656C3 9.70078 3.20039 9.60234 3.34101 9.71133C4.12851 10.3231 5.17266 11.1 8.75859 13.7051C9.5004 14.2465 10.7519 15.3856 12 15.3785C13.255 15.3891 14.5313 14.2254 15.245 13.7051C18.8309 11.1 19.8715 10.3196 20.659 9.70781ZM12 14.25C12.8156 14.2641 13.9898 13.2234 14.5804 12.7946C19.2457 9.40898 19.6008 9.11368 20.6766 8.26993C20.8805 8.11172 21 7.86563 21 7.60547V6.9375C21 6.00587 20.2441 5.25 19.3125 5.25H4.6875C3.75587 5.25 3 6.00587 3 6.9375V7.60547C3 7.86563 3.11953 8.10821 3.32344 8.26993C4.39922 9.11016 4.7543 9.40898 9.41953 12.7946C10.0102 13.2234 11.1844 14.2641 12 14.25Z" fill="#1A8164"/>
</svg>
