<svg width="18" height="24" viewBox="0 0 18 24" fill="none" xmlns="http://www.w3.org/2000/svg">
<path d="M16.1138 4.9998V3.72329L17.0403 3H7.0142L0.959961 8.26283H4.97509C4.9678 8.36243 4.96481 8.4525 4.96481 8.55465C4.96481 9.53175 5.30321 10.34 5.98069 10.9856C6.65817 11.6324 7.49247 11.9535 8.48037 11.9535C8.71114 11.9535 8.93743 11.9363 9.15717 11.9055C9.02089 12.2102 8.95211 12.4925 8.95211 12.7559C8.95211 13.2188 9.16301 13.7136 9.58338 14.2391C7.7443 14.3643 6.39302 14.6953 5.53165 15.2311C5.03801 15.5358 4.64101 15.9204 4.34148 16.381C4.04192 16.8451 3.89252 17.3427 3.89252 17.8792C3.89252 18.3315 3.98919 18.7387 4.18404 19.1009C4.37888 19.4631 4.633 19.7605 4.94867 19.9908C5.26359 20.2237 5.62691 20.4174 6.03706 20.5753C6.44648 20.732 6.85299 20.8433 7.25868 20.9063C7.66307 20.9692 8.06515 21 8.46364 21C9.09499 21 9.72708 20.9187 10.3642 20.7569C10.9999 20.5935 11.5961 20.3518 12.1535 20.0306C12.7094 19.7117 13.162 19.2766 13.5092 18.7313C13.8556 18.1838 14.0293 17.5686 14.0293 16.8875C14.0293 16.3711 13.9238 15.9013 13.7129 15.4746C13.5034 15.0494 13.247 14.6993 12.9416 14.4272C12.6369 14.1548 12.3323 13.9043 12.0269 13.6787C11.7221 13.4516 11.4644 13.2217 11.2549 12.9844C11.0447 12.7478 10.9392 12.5131 10.9392 12.282C10.9392 12.0513 11.0205 11.8286 11.1837 11.6133C11.3456 11.3972 11.5434 11.1892 11.7748 10.9896C12.0062 10.7904 12.2377 10.5692 12.4684 10.3271C12.6991 10.0858 12.8969 9.77272 13.0595 9.38924C13.2228 9.00584 13.3034 8.57151 13.3034 8.08814C13.3034 7.45754 13.184 6.94155 12.9496 6.52657C12.9218 6.47864 12.8925 6.44204 12.8617 6.3849L15.5292 4.19715V4.99958C15.1826 5.04316 15.2187 5.25016 15.2187 5.4981V11.5294C15.2187 11.8087 15.4472 12.0372 15.7266 12.0372H15.9135C16.1928 12.0372 16.4214 11.8087 16.4214 11.5294V5.4981C16.4214 5.25076 16.4578 5.04398 16.1138 4.9998ZM11.0813 15.4285C11.1348 15.4637 11.2549 15.5588 11.4431 15.7115C11.6329 15.8636 11.7617 15.9785 11.8305 16.0591C11.898 16.1371 11.9983 16.2543 12.1294 16.4129C12.2613 16.571 12.3506 16.7084 12.3975 16.8223C12.4443 16.9384 12.492 17.0783 12.5403 17.2416C12.5865 17.4031 12.6099 17.5686 12.6099 17.7367C12.6099 18.5358 12.3022 19.1279 11.6885 19.5113C11.0733 19.8948 10.3401 20.0867 9.48833 20.0867C9.05768 20.0867 8.63506 20.0354 8.21977 19.9369C7.80525 19.8377 7.40828 19.6868 7.0296 19.4868C6.65092 19.2872 6.34628 19.0085 6.11551 18.6526C5.88405 18.2945 5.76833 17.8832 5.76833 17.4221C5.76833 16.9384 5.89943 16.5179 6.16312 16.1609C6.42532 15.8035 6.76958 15.5332 7.19588 15.3493C7.62068 15.1643 8.05132 15.0332 8.48783 14.9556C8.92434 14.8758 9.36893 14.8358 9.82088 14.8358C10.0303 14.8358 10.1928 14.8476 10.3086 14.8685C10.3299 14.8787 10.4507 14.9655 10.6711 15.1292C10.8916 15.2915 11.0285 15.3915 11.0813 15.4285ZM10.9239 10.7139C10.5767 11.1292 10.0926 11.3368 9.47295 11.3368C8.91704 11.3368 8.42774 11.1134 8.00737 10.6659C7.58551 10.2195 7.28445 9.71304 7.10062 9.14573C6.91605 8.57813 6.82378 8.02147 6.82378 7.47473C6.82378 6.83281 6.99232 6.28636 7.32914 5.83523C7.66604 5.38291 8.14941 5.15626 8.77935 5.15626C9.33599 5.15626 9.82814 5.39242 10.2529 5.86673C10.6792 6.33946 10.9846 6.87047 11.1678 7.45898C11.3516 8.04675 11.4431 8.60881 11.4431 9.14573C11.4431 9.77604 11.2695 10.2993 10.9239 10.7139Z" fill="#1A8164"/>
</svg>
